<?xml version="1.0" standalone="no"?><!DOCTYPE svg PUBLIC "-//W3C//DTD SVG 1.1//EN" "http://www.w3.org/Graphics/SVG/1.1/DTD/svg11.dtd"><svg t="1489918413891" class="icon" style="" viewBox="0 0 1024 1024" version="1.1" xmlns="http://www.w3.org/2000/svg" p-id="863" xmlns:xlink="http://www.w3.org/1999/xlink" width="200" height="200"><defs><style type="text/css">* { font-weight: 500 !important; }
* { font-family: "“Microsoft Yahei”", "“Microsoft Yahei”"; }
* { text-shadow: rgb(153, 153, 153) 0.01em 0.01em 0.01em !important; }
* { text-decoration: none !important; }
</style></defs><path d="M191.73 186.891h149.050l-65.087 64.95 196.524 196.191v15.732h-15.751l-196.479-196.198-68.254 68.108v-148.782zM191.73 186.891z" p-id="864"></path><path d="M686.267 186.891h144.518v144.302l-65.985-65.888-198.748 198.459h-15.753v-15.732l198.748-198.459-62.781-62.683zM686.267 186.891z" p-id="865"></path><path d="M550.299 541.732h15.753l196.528 196.234 68.205-68.146v148.829h-149.011l65.053-64.95-196.528-196.243v-15.724zM550.299 541.732z" p-id="866"></path><path d="M456.465 541.732h15.751v15.767l-198.757 198.461 62.784 62.691h-144.514v-144.303l65.985 65.843 198.749-198.459zM456.465 541.732z" p-id="867"></path><path d="M191.73 375.122l68.254-68.142 157.010 156.782h-225.264v-88.641zM191.73 375.122z" p-id="868"></path><path d="M416.994 541.732l-159.278 159.097-65.985-65.888v-93.209h225.263zM416.994 541.732z" p-id="869"></path><path d="M61.634 505.031l102.196-102.047v88.672h281.061l11.172 11.111-11.172 11.107h-281.061v93.165l-102.196-102.009zM61.634 505.031z" p-id="870"></path><path d="M605.51 463.764l159.289-159.008 65.985 65.839v93.169h-225.274zM605.51 463.764z" p-id="871"></path><path d="M830.785 630.408l-68.205 68.151-157.069-156.829h225.275v88.677zM830.785 630.408z" p-id="872"></path><path d="M566.493 502.769l11.127-11.111h281.106v-93.156l102.151 102.004-102.151 102.044v-88.672h-281.106l-11.127-11.107zM566.493 502.769z" p-id="873"></path><path d="M550.299 596.871l157.015 156.828-65.004 64.95h-92.012v-221.778zM550.299 596.871z" p-id="874"></path><path d="M500.114 569.010l11.167-11.103 11.118 11.103v277.498h91.971l-105.357 105.204-105.363-105.204h96.464v-277.498zM500.114 569.010z" p-id="875"></path><path d="M312.929 755.958l159.29-159.089v221.778h-96.505l-62.786-62.69zM312.929 755.958z" p-id="876"></path><path d="M550.299 409.651l157.015-156.789-65.004-64.955h-92.012v221.744zM550.299 409.651z" p-id="877"></path><path d="M500.114 437.499l11.167 11.151 11.118-11.151v-277.453h91.971l-105.357-105.246-105.363 105.246h96.464v277.453zM500.114 437.499z" p-id="878"></path><path d="M312.929 250.599l159.29 159.054v-221.744h-96.505l-62.786 62.69zM312.929 250.599z" p-id="879"></path></svg>