<?xml version="1.0" standalone="no"?><!DOCTYPE svg PUBLIC "-//W3C//DTD SVG 1.1//EN" "http://www.w3.org/Graphics/SVG/1.1/DTD/svg11.dtd"><svg t="1489916270871" class="icon" style="" viewBox="0 0 1024 1024" version="1.1" xmlns="http://www.w3.org/2000/svg" p-id="938" xmlns:xlink="http://www.w3.org/1999/xlink" width="200" height="200"><defs><style type="text/css"></style></defs><path d="M573.532937 512l342.535377-342.535377c9.061376-9.0624 9.061376-23.75503 0-32.81743L887.352295 107.931175c-9.061376-9.0624-23.75503-9.0624-32.816406 0L511.999488 450.466552 169.463088 107.931175c-9.061376-9.0624-23.75503-9.0624-32.81743 0l-28.716019 28.716019c-9.0624 9.0624-9.061376 23.75503 0 32.81743l342.535377 342.535377L107.930663 854.535377c-9.0624 9.061376-9.0624 23.75503 0 32.81743l28.716019 28.716019c9.0624 9.0624 23.75503 9.061376 32.81743 0l342.535377-342.535377 342.534354 342.535377c9.0624 9.061376 23.75503 9.061376 32.81743 0l28.716019-28.717042c9.0624-9.061376 9.0624-23.75503 0-32.816406L573.532937 512z" p-id="939"></path></svg>