<?xml version="1.0" standalone="no"?><!DOCTYPE svg PUBLIC "-//W3C//DTD SVG 1.1//EN" "http://www.w3.org/Graphics/SVG/1.1/DTD/svg11.dtd"><svg t="1489916227747" class="icon" style="" viewBox="0 0 1024 1024" version="1.1" xmlns="http://www.w3.org/2000/svg" p-id="697" xmlns:xlink="http://www.w3.org/1999/xlink" width="200" height="200"><defs><style type="text/css"></style></defs><path d="M729.6 166.4c-12.8-6.4-25.6-6.4-38.4 0-6.4 6.4-12.8 6.4-12.8 12.8-6.4 12.8-6.4 25.6 0 32 6.4 6.4 6.4 12.8 12.8 12.8 121.6 70.4 198.4 192 198.4 332.8 0 211.2-166.4 384-377.6 384s-377.6-172.8-377.6-384c0-140.8 76.8-268.8 198.4-332.8 12.8-6.4 19.2-32 6.4-44.8-12.8-12.8-32-19.2-44.8-12.8C153.6 249.6 64 403.2 64 563.2c0 249.6 204.8 448 448 448s448-204.8 448-448c0-166.4-89.6-320-230.4-396.8z" p-id="698"></path><path d="M512 409.6c19.2 0 38.4-12.8 38.4-38.4V76.8c0-19.2-12.8-38.4-38.4-38.4-19.2 0-38.4 12.8-38.4 38.4v294.4c0 25.6 19.2 38.4 38.4 38.4z" p-id="699"></path></svg>