<?xml version="1.0" standalone="no"?><!DOCTYPE svg PUBLIC "-//W3C//DTD SVG 1.1//EN" "http://www.w3.org/Graphics/SVG/1.1/DTD/svg11.dtd"><svg t="1489916256886" class="icon" style="" viewBox="0 0 1024 1024" version="1.1" xmlns="http://www.w3.org/2000/svg" p-id="816" xmlns:xlink="http://www.w3.org/1999/xlink" width="200" height="200"><defs><style type="text/css"></style></defs><path d="M127.32526 121.34065l771.401347 391.788696-772.349465 391.817364 0.948118-783.60606z m0-56.1468c-10.252164 0-20.472587 2.360056-29.7152 7.075048-19.43232 9.882541-31.489593 28.691315-31.489593 49.071752l-0.949142 783.607084c0 20.406035 12.028605 39.161566 31.460924 49.074823 9.272306 4.71192 19.46406 7.070952 29.7152 7.070953 11.199258 0 22.461996-2.834115 32.314845-8.472652l772.350489-391.820436c17.997856-10.220423 28.920665-28.270498 28.920664-47.670053 0-19.398531-10.954549-37.448606-28.920664-47.668005L159.643176 73.645c-9.85592-5.616011-21.08487-8.451149-32.317916-8.45115z" fill="" p-id="817"></path></svg>