<?xml version="1.0" standalone="no"?><!DOCTYPE svg PUBLIC "-//W3C//DTD SVG 1.1//EN" "http://www.w3.org/Graphics/SVG/1.1/DTD/svg11.dtd"><svg t="1489918382870" class="icon" style="" viewBox="0 0 1024 1024" version="1.1" xmlns="http://www.w3.org/2000/svg" p-id="644" xmlns:xlink="http://www.w3.org/1999/xlink" width="200" height="200"><defs><style type="text/css">* { font-weight: 500 !important; }
* { font-family: "“Microsoft Yahei”", "“Microsoft Yahei”"; }
* { text-shadow: rgb(153, 153, 153) 0.01em 0.01em 0.01em !important; }
* { text-decoration: none !important; }
</style></defs><path d="M602.99749 253.973557C567.48517 253.973557 533.704489 261.559781 503.167191 275.275452L418.811689 129.158198C474.334046 101.397019 536.920388 85.729819 602.99749 85.729819 629.356868 85.729819 655.111545 88.231074 680.096606 92.986206 679.684311 97.521448 679.464421 102.111663 679.464421 106.75685 679.464421 188.74853 746.311141 255.59525 828.302821 255.59525 860.489296 255.59525 890.31195 245.287883 914.692311 227.806585 971.369095 292.701776 1008.173271 375.298157 1015.512117 466.030483L846.96603 471.225397C832.893037 349.241129 728.719899 253.973557 602.99749 253.973557L602.99749 253.973557ZM828.302821 213.513701C769.482105 213.513701 721.518483 165.577566 721.518483 106.75685 721.518483 47.963621 769.482105 0 828.302821 0 887.123536 0 935.087157 47.963621 935.087157 106.75685 935.087157 165.577566 887.123536 213.513701 828.302821 213.513701L828.302821 213.513701ZM357.434745 499.508816C357.434745 577.130172 393.771655 646.505634 450.311006 691.555705L366.862551 838.93733C294.903376 788.719831 239.545936 716.265904 210.87771 631.663024 250.183141 604.836379 276.102736 559.676363 276.102736 508.66176 276.102736 455.61317 248.094181 408.91392 206.09509 382.554544 232.591899 293.004126 288.663984 215.932496 362.959495 162.773962L451.822754 306.25253C394.40384 351.24763 357.434745 421.22779 357.434745 499.508816L357.434745 499.508816ZM127.23685 615.446096C68.443621 615.446096 20.48 567.482477 20.48 508.66176 20.48 449.86853 68.443621 401.90491 127.23685 401.90491 186.085053 401.90491 234.021188 449.86853 234.021188 508.66176 234.021188 567.482477 186.085053 615.446096 127.23685 615.446096L127.23685 615.446096ZM602.99749 745.044077C729.324597 745.044077 833.882544 648.869456 847.18592 526.005625L1015.814468 528.671797C1008.887917 627.347671 967.108717 716.678197 902.735763 784.349508 882.148514 773.574871 858.757659 767.47291 834.019975 767.47291 755.848892 767.47291 691.393483 828.245154 685.59387 904.959461 658.87717 910.401751 631.28091 913.287815 602.99749 913.287815 538.212243 913.287815 476.780329 898.225314 422.110046 871.481129L506.080741 725.034037C535.848421 737.897634 568.639597 745.044077 602.99749 745.044077L602.99749 745.044077ZM834.019975 809.526972C892.813203 809.526972 940.776825 857.490594 940.776825 916.31131 940.776825 975.077052 892.813203 1023.06816 834.019975 1023.06816 775.199259 1023.06816 727.235637 975.077052 727.235637 916.31131 727.235637 857.490594 775.199259 809.526972 834.019975 809.526972L834.019975 809.526972Z" p-id="645"></path></svg>