<?xml version="1.0" standalone="no"?><!DOCTYPE svg PUBLIC "-//W3C//DTD SVG 1.1//EN" "http://www.w3.org/Graphics/SVG/1.1/DTD/svg11.dtd"><svg t="1489918701162" class="icon" style="" viewBox="0 0 1024 1024" version="1.1" xmlns="http://www.w3.org/2000/svg" p-id="11639" xmlns:xlink="http://www.w3.org/1999/xlink" width="200" height="200"><defs><style type="text/css">* { font-weight: 500 !important; }
* { font-family: "“Microsoft Yahei”", "“Microsoft Yahei”"; }
* { text-shadow: rgb(153, 153, 153) 0.01em 0.01em 0.01em !important; }
* { text-decoration: none !important; }
</style></defs><path d="M0 494.933333l409.6 0 0-409.6L0 146.773333 0 494.933333 0 494.933333 0 494.933333zM467.626667 85.333333l0 406.186667L1024 491.52 1024 0 467.626667 85.333333 467.626667 85.333333 467.626667 85.333333zM0 873.813333l409.6 61.44L409.6 552.96 0 552.96 0 873.813333 0 873.813333 0 873.813333zM467.626667 938.666667 1024 1024 1024 552.96 467.626667 552.96 467.626667 938.666667 467.626667 938.666667 467.626667 938.666667zM467.626667 938.666667" p-id="11640"></path></svg>